<svg height="100" viewBox="0 0 100 100" width="100" xmlns="http://www.w3.org/2000/svg"><g fill="none" fill-rule="evenodd"><path d="m99.5145299 49.674359c0-27.4350428-22.2401709-49.674359-49.674359-49.674359-27.434188 0-49.67435893 22.2393162-49.67435893 49.674359 0 27.434188 22.24017093 49.6735042 49.67435893 49.6735042 27.4341881 0 49.674359-22.2393162 49.674359-49.6735042" fill="#ffd34d"/><g fill="#000" fill-opacity=".1"><path d="m49.8401709 10.5863248c-21.5529914 0-39.0880341 17.5350427-39.0880341 39.0880342 0 21.5529914 17.5350427 39.0871795 39.0880341 39.0871795 21.5529915 0 39.0871795-17.5341881 39.0871795-39.0871795 0-21.5529915-17.534188-39.0880342-39.0871795-39.0880342zm0 81.459829c-23.3641025 0-42.37264953-19.008547-42.37264953-42.3717948 0-23.3641026 19.00854703-42.3726496 42.37264953-42.3726496 23.3632479 0 42.3717949 19.008547 42.3717949 42.3726496 0 23.3632478-19.008547 42.3717948-42.3717949 42.3717948z"/><path d="m49.8401709 22.2316239 6.1606838 18.9623932h19.9384615l-16.1299145 11.7188034 6.1606838 18.9632479-16.1299146-11.7196581-16.1307692 11.7196581 6.1615385-18.9632479-16.1307693-11.7188034h19.9384616z"/></g></g></svg>